<svg width="78" height="87" viewBox="0 0 78 87" fill="none" xmlns="http://www.w3.org/2000/svg">
<path d="M21.9375 78.5719H56.0625" stroke="white" stroke-width="2" stroke-miterlimit="10" stroke-linecap="round" stroke-linejoin="round"/>
<path d="M31.6873 62.3157C31.6873 68.0054 29.9811 74.7788 27.2998 78.5719" stroke="white" stroke-width="2" stroke-miterlimit="10" stroke-linecap="round" stroke-linejoin="round"/>
<path d="M50.7 78.5719C48.0187 74.7788 46.3125 68.0054 46.3125 62.3157" stroke="white" stroke-width="2" stroke-miterlimit="10" stroke-linecap="round" stroke-linejoin="round"/>
<path d="M39 54.1875V27.0937C39 22.4878 35.8313 18.9656 31.6875 18.9656H17.0625V46.0593H31.6875C35.8313 46.0593 39 49.5815 39 54.1875Z" stroke="white" stroke-width="2" stroke-miterlimit="10" stroke-linecap="round" stroke-linejoin="round"/>
<path d="M39 54.1875V27.0937C39 22.4878 42.1687 18.9656 46.3125 18.9656H60.9375V46.0593H46.3125C42.1687 46.0593 39 49.5815 39 54.1875Z" stroke="white" stroke-width="2" stroke-miterlimit="10" stroke-linecap="round" stroke-linejoin="round"/>
<path d="M7.3125 16.2563V56.8969C7.3125 59.8772 9.50625 62.3157 12.1875 62.3157H65.8125C68.4938 62.3157 70.6875 59.8772 70.6875 56.8969V16.2563C70.6875 13.276 68.4938 10.8375 65.8125 10.8375H12.1875C9.50625 10.8375 7.3125 13.276 7.3125 16.2563Z" stroke="white" stroke-width="2" stroke-miterlimit="10" stroke-linecap="round" stroke-linejoin="round"/>
</svg>
