<svg width="110" height="18" viewBox="0 0 110 18" fill="none" xmlns="http://www.w3.org/2000/svg">
<g clip-path="url(#clip0)">
<path d="M10.235 -0.00927734L13.4021 6.36572L19.7375 7.07411L14.9856 10.6158L16.5692 16.9909L10.235 13.4489L3.90026 16.9909L5.48394 10.6158L0.73291 7.07411L7.06761 6.36572L10.235 -0.00927734Z" fill="#F39C12"/>
<path d="M10.2349 0V9.20833L13.4022 6.375L10.2349 0Z" fill="#F1C40F"/>
<path d="M10.2349 9.2085L19.7368 7.0835L14.9859 10.6252L10.2349 9.2085Z" fill="#F1C40F"/>
<path d="M10.2349 9.2085L16.5695 17.0002L10.2349 13.4585V9.2085Z" fill="#F1C40F"/>
<path d="M10.235 9.2085L3.90039 17.0002L5.48405 10.6252L10.235 9.2085Z" fill="#F1C40F"/>
<path d="M10.2349 9.20833L0.73291 7.08333L7.06757 6.375L10.2349 9.20833Z" fill="#F1C40F"/>
</g>
<g clip-path="url(#clip1)">
<path d="M70.4142 -0.0102539L73.5813 6.73975L79.9167 7.4898L75.1649 11.2398L76.7484 17.9899L70.4142 14.2396L64.0795 17.9899L65.6631 11.2398L60.9121 7.4898L67.2468 6.73975L70.4142 -0.0102539Z" fill="#F39C12"/>
<path d="M70.4141 0V9.75L73.5814 6.75L70.4141 0Z" fill="#F1C40F"/>
<path d="M70.4141 9.75L79.916 7.5L75.1651 11.25L70.4141 9.75Z" fill="#F1C40F"/>
<path d="M70.4141 9.75L76.7487 18L70.4141 14.25V9.75Z" fill="#F1C40F"/>
<path d="M70.4142 9.75L64.0796 18L65.6633 11.25L70.4142 9.75Z" fill="#F1C40F"/>
<path d="M70.4141 9.75L60.9121 7.5L67.2468 6.75L70.4141 9.75Z" fill="#F1C40F"/>
</g>
<g clip-path="url(#clip2)">
<path d="M39.7965 -0.00927734L42.9636 6.36572L49.299 7.07411L44.5472 10.6158L46.1307 16.9909L39.7965 13.4489L33.4618 16.9909L35.0455 10.6158L30.2944 7.07411L36.6291 6.36572L39.7965 -0.00927734Z" fill="#F39C12"/>
<path d="M39.7964 0V9.20833L42.9637 6.375L39.7964 0Z" fill="#F1C40F"/>
<path d="M39.7964 9.2085L49.2984 7.0835L44.5474 10.6252L39.7964 9.2085Z" fill="#F1C40F"/>
<path d="M39.7964 9.2085L46.131 17.0002L39.7964 13.4585V9.2085Z" fill="#F1C40F"/>
<path d="M39.7966 9.2085L33.4619 17.0002L35.0456 10.6252L39.7966 9.2085Z" fill="#F1C40F"/>
<path d="M39.7964 9.20833L30.2944 7.08333L36.6291 6.375L39.7964 9.20833Z" fill="#F1C40F"/>
</g>
<g clip-path="url(#clip3)">
<path d="M99.9762 -0.0102539L103.143 6.73975L109.479 7.4898L104.727 11.2398L106.31 17.9899L99.9762 14.2396L93.6415 17.9899L95.2251 11.2398L90.4741 7.4898L96.8088 6.73975L99.9762 -0.0102539Z" fill="#F39C12"/>
<path d="M99.9761 0V9.75L103.143 6.75L99.9761 0Z" fill="#F1C40F"/>
<path d="M99.9761 9.75L109.478 7.5L104.727 11.25L99.9761 9.75Z" fill="#F1C40F"/>
<path d="M99.9761 9.75L106.311 18L99.9761 14.25V9.75Z" fill="#F1C40F"/>
<path d="M99.9763 9.75L93.6416 18L95.2253 11.25L99.9763 9.75Z" fill="#F1C40F"/>
<path d="M99.9761 9.75L90.4741 7.5L96.8088 6.75L99.9761 9.75Z" fill="#F1C40F"/>
</g>
<defs>
<clipPath id="clip0">
<rect width="19.004" height="17" fill="white" transform="translate(0.73291)"/>
</clipPath>
<clipPath id="clip1">
<rect width="19.004" height="18" fill="white" transform="translate(60.9121)"/>
</clipPath>
<clipPath id="clip2">
<rect width="19.004" height="17" fill="white" transform="translate(30.2944)"/>
</clipPath>
<clipPath id="clip3">
<rect width="19.004" height="18" fill="white" transform="translate(90.4741)"/>
</clipPath>
</defs>
</svg>
