<svg width="78" height="79" viewBox="0 0 78 79" fill="none" xmlns="http://www.w3.org/2000/svg">
<path d="M73.192 74.0297C73.1373 72.7601 73.0635 71.255 72.9651 69.6515C72.76 66.3541 72.4428 62.6601 71.9535 59.8005C71.9184 59.5739 71.8681 59.35 71.8032 59.1301C71.542 58.1648 71.0795 57.2659 70.4462 56.4924C69.8129 55.7189 69.0231 55.0884 68.1288 54.6424C64.118 52.6421 57.2094 50.0645 52.3648 48.3296L52.8433 51.9936C57.5757 53.7093 63.2569 55.882 66.6661 57.5813C67.1451 57.8207 67.5681 58.1587 67.9073 58.5732C68.2466 58.9878 68.4944 59.4694 68.6345 59.9866L68.6646 60.0878C68.6897 60.1749 68.7089 60.2636 68.722 60.3533C69.1129 62.6573 69.441 65.8561 69.6925 69.8513C69.7745 71.203 69.8484 72.6561 69.914 74.1584L69.9222 74.4046H8.07786L8.08608 74.172C8.15441 72.6178 8.22551 71.203 8.30752 69.8595C8.47362 66.6673 8.79936 63.4855 9.28352 60.3259C9.29513 60.2454 9.31249 60.1659 9.33548 60.0879L9.36554 59.9866C9.50517 59.4692 9.75281 58.9873 10.0921 58.5727C10.4314 58.1581 10.8547 57.8202 11.334 57.5813C14.7432 55.8792 20.4243 53.7066 25.1568 51.9936L25.6352 48.3296C20.7907 50.0645 13.882 52.6421 9.87129 54.6424C8.97668 55.088 8.18663 55.7183 7.55326 56.4919C6.91989 57.2654 6.4576 58.1646 6.19689 59.1301C6.13233 59.3502 6.08121 59.5741 6.0438 59.8005C5.55717 62.6601 5.24004 66.3541 5.03498 69.6515C4.93656 71.255 4.86276 72.7601 4.80808 74.0297C4.72333 76.2188 4.69873 77.6883 4.69873 77.6883H73.3013C73.3013 77.6883 73.2767 76.2188 73.192 74.0297Z" fill="#2D3E50"/>
<path d="M53.4879 21.5854H53.4929C53.4879 20.6398 53.4728 19.3925 53.4628 18.0897C53.4326 14.755 53.4024 11.0531 53.4024 11.0531L49.9049 11.6718L46.3018 12.3055L39.6685 13.4775C39.5981 13.4875 39.4826 13.5077 39.2966 13.5278L39.1509 13.5429L39.0805 13.5378L39.0152 13.5429L38.8695 13.5278C38.6835 13.5077 38.5629 13.4875 38.4976 13.4775L31.8593 12.3055L28.2562 11.6718L24.7586 11.0531V20.5191C24.7586 20.5191 24.7335 21.0372 24.7134 21.6407H24.7184C24.7022 22.3301 24.7408 23.0197 24.834 23.703L26.7536 33.6115C27.3118 36.4797 28.8491 39.0642 31.1021 40.9224C33.3552 42.7806 36.1837 43.7968 39.1031 43.7968C42.0226 43.7968 44.8511 42.7806 47.1041 40.9224C49.3572 39.0642 50.8945 36.4797 51.4527 33.6115L53.3723 23.703C53.4655 23.0012 53.5041 22.2932 53.4879 21.5854ZM50.8295 23.2905L48.92 33.1186C48.4772 35.4 47.2553 37.4562 45.4638 38.9346C43.6722 40.413 41.4226 41.2215 39.1006 41.2215C36.7787 41.2215 34.5291 40.413 32.7375 38.9346C30.946 37.4562 29.7241 35.4 29.2813 33.1186L27.3768 23.2905C27.3184 22.8284 27.2899 22.3631 27.2913 21.8973H27.3215C32.2462 21.8973 36.578 24.0349 39.0655 27.264L39.0805 27.2741L39.0956 27.264C41.5831 24.0349 45.9199 21.8973 50.8446 21.8973H50.915C50.9139 22.363 50.8854 22.8282 50.8295 23.2905Z" fill="#984063"/>
<path d="M15.5473 7.39148L22.7535 8.66396L25.5274 9.1519L30.2712 9.98688L35.0552 10.8268L38.9096 11.5058C38.9657 11.5186 39.023 11.5253 39.0805 11.5259H39.0855C39.1413 11.525 39.1969 11.5182 39.2513 11.5058L43.1057 10.8318L47.8947 9.98685L52.6285 9.15187L55.4075 8.66393L62.0157 7.49706L62.0207 17.3654L60.5332 25.8506L60.6387 25.8858C60.9689 26.006 61.3084 26.0985 61.6538 26.1625C61.9939 26.2225 62.3386 26.2528 62.684 26.253C63.1879 26.2525 63.6896 26.1866 64.1765 26.0569C64.3624 26.0115 64.5484 25.9513 64.7343 25.8858L64.8398 25.8506L63.3524 17.3906V6.6722C63.3709 6.60681 63.3793 6.53897 63.3775 6.47103C63.3788 6.36824 63.3618 6.26604 63.3272 6.16923V6.16423C63.2749 6.00725 63.1817 5.86712 63.0571 5.75835C62.9325 5.64957 62.7811 5.5761 62.6187 5.54555L39.2362 1.43122C39.1866 1.42097 39.1361 1.41592 39.0855 1.41614H39.0805C39.0282 1.41592 38.976 1.42097 38.9247 1.43122L15.5422 5.54554C15.3798 5.5761 15.2284 5.64957 15.1038 5.75834C14.9792 5.86712 14.886 6.00725 14.8337 6.16422V6.16922C14.8008 6.26633 14.7855 6.36853 14.7885 6.47102C14.7859 6.68944 14.8607 6.90171 14.9996 7.07019C15.1385 7.23868 15.3325 7.3525 15.5473 7.39148Z" fill="#984063"/>
<path d="M49.4589 48.2421H46.1235C45.4602 49.4386 44.4888 50.4354 43.3103 51.129C43.0685 51.2741 42.8194 51.4066 42.5639 51.5257C41.4455 52.0378 40.2301 52.3028 39.0002 52.3028C37.7704 52.3028 36.5549 52.0378 35.4365 51.5257C35.181 51.4066 34.9319 51.2741 34.6902 51.129C33.511 50.4362 32.5394 49.4392 31.8769 48.2421H28.5416L28.1123 51.5257L25.8076 69.1808L38.9989 63.7081L52.1928 69.1808L49.8881 51.5257L49.4589 48.2421Z" fill="#984063"/>
</svg>
