<svg width="78" height="95" viewBox="0 0 78 95" fill="none" xmlns="http://www.w3.org/2000/svg">
<path d="M11.7806 29.9689C11.9559 31.0665 12.4392 32.0557 13.1476 32.7669C13.8561 33.4781 14.7456 33.867 15.6637 33.867C16.5818 33.867 17.4714 33.4781 18.1798 32.7669C18.8883 32.0557 19.3716 31.0665 19.5469 29.9689L20.1508 26.1777C20.2309 25.4601 20.184 24.7299 20.0133 24.0362C19.8425 23.3425 19.5518 22.7014 19.1608 22.1558C18.7697 21.6103 18.2873 21.173 17.746 20.8734C17.2047 20.5737 16.617 20.4186 16.0224 20.4185H15.3051C14.7105 20.4186 14.1228 20.5737 13.5814 20.8734C13.0401 21.173 12.5577 21.6103 12.1667 22.1559C11.7756 22.7014 11.485 23.3426 11.3142 24.0363C11.1434 24.73 11.0966 25.4601 11.1767 26.1777L11.7806 29.9689Z" fill="#FE9677"/>
<path d="M29.7065 42.9819H29.9459C30.3432 42.9778 30.7316 42.8382 31.0671 42.579C31.4025 42.3197 31.6716 41.9512 31.8439 41.5152L35.9532 31.1837C36.1745 30.6277 36.2095 29.9887 36.051 29.4019C35.8925 28.815 35.5528 28.3262 35.1037 28.0388C34.6547 27.7514 34.1314 27.688 33.6447 27.8619C33.1579 28.0358 32.7458 28.4334 32.4954 28.9707L28.636 37.2822C28.636 37.2822 20.3787 35.9527 19.7132 35.8498C19.6455 35.8385 19.5771 35.8357 19.509 35.8413H19.5019C19.4773 35.8369 19.4562 35.8327 19.435 35.8284C19.3079 35.8075 19.1786 35.8177 19.0548 35.8584L18.9526 35.8198L16.9667 38.2386L15.8962 39.5338L15.618 39.8812L15.5476 39.967L15.4701 39.8683V39.8383L15.456 39.8555L15.4419 39.8383V39.8683L15.3645 39.967L15.0159 39.5338L13.9454 38.2386L11.9594 35.8198L11.8573 35.8584C11.7334 35.8179 11.6041 35.8077 11.477 35.8284C10.7516 35.9442 7.68107 36.7119 6.56134 36.9949C6.23382 37.071 5.93369 37.2688 5.70216 37.561C5.53825 37.7757 5.39744 38.0149 5.28313 38.2729L2.57174 44.3886L1.46609 46.876L1.34285 47.1548C1.19191 47.5008 1.11123 47.8857 1.10755 48.2775C1.10388 48.6692 1.17733 49.0563 1.32175 49.4064L5.02605 58.344C5.22003 58.8125 5.54043 59.1854 5.93348 59.4002C6.32652 59.615 6.76827 59.6585 7.18454 59.5234C7.26928 59.501 7.35189 59.4679 7.43105 59.4248C7.55608 59.3627 7.67435 59.282 7.78318 59.1847V61.2033C7.78317 63.6124 8.56299 65.9245 9.95351 67.638C11.344 69.3514 13.2331 70.3281 15.2111 70.3562C17.189 70.3843 19.0963 69.4615 20.5192 67.788C21.9422 66.1145 22.766 63.8252 22.8121 61.4167C22.9057 56.4891 22.999 51.1654 23.0936 47.0776C23.0971 46.949 23.1112 46.3142 23.1288 45.5808C23.1288 45.5294 23.1323 45.4736 23.1323 45.4179C23.1605 44.3114 23.1886 43.0634 23.1886 43.0377L27.724 42.9991L29.7065 42.9819ZM7.78321 54.5271L5.7655 48.673L7.78321 45.4093V54.5271Z" fill="#FE9677"/>
<path d="M74.4287 10.345H28.0417C27.3882 10.345 26.7615 10.6612 26.2994 11.224C25.8373 11.7868 25.5777 12.5501 25.5776 13.346V13.9064C25.5782 14.7022 25.838 15.4651 26.3 16.0278C26.7619 16.5904 27.3884 16.9068 28.0417 16.9075V34.4384L31.0476 27.9718C31.1602 27.7314 31.2909 27.5042 31.4381 27.2933V19.1381H71.0323V51.3057H31.4381V44.6288C30.972 44.8767 30.4693 45.0059 29.9608 45.0086L28.0417 45.0233V52.9316C28.0418 53.2616 28.0954 53.5883 28.1992 53.8931C28.303 54.1978 28.4551 54.4747 28.6468 54.7079C28.8386 54.941 29.0661 55.1259 29.3165 55.2519C29.5669 55.378 29.8352 55.4427 30.1061 55.4424H72.3673C72.914 55.4422 73.4383 55.1777 73.8248 54.7068C74.2114 54.236 74.4286 53.5975 74.4287 52.9316V16.9075C75.0821 16.9068 75.7085 16.5904 76.1705 16.0278C76.6324 15.4651 76.8922 14.7022 76.8928 13.9064V13.346C76.8927 12.5501 76.6331 11.7868 76.171 11.224C75.7089 10.6612 75.0822 10.345 74.4287 10.345V10.345Z" fill="#984063"/>
</svg>
