<svg width="69" height="27" viewBox="0 0 69 27" fill="none" xmlns="http://www.w3.org/2000/svg">
<rect width="69" height="27" rx="12" fill="#ED1B43"/>
<g clip-path="url(#clip0)">
<path d="M20.0001 4.99121L22.6666 10.9912L28.0005 11.6579L23.9998 14.9912L25.333 20.9913L20.0001 17.6577L14.6667 20.9913L16 14.9912L12 11.6579L17.3334 10.9912L20.0001 4.99121Z" fill="#F39C12"/>
<path d="M20 5V13.6667L22.6667 11L20 5Z" fill="#F1C40F"/>
<path d="M20 13.6665L28 11.6665L24 14.9998L20 13.6665Z" fill="#F1C40F"/>
<path d="M20 13.6665L25.3333 20.9998L20 17.6665V13.6665Z" fill="#F1C40F"/>
<path d="M19.9998 13.6665L14.6665 20.9998L15.9998 14.9998L19.9998 13.6665Z" fill="#F1C40F"/>
<path d="M20 13.6667L12 11.6667L17.3333 11L20 13.6667Z" fill="#F1C40F"/>
</g>
<path d="M47.284 10.632H45.448L43.216 15.216V16.632H46.42V18H48.076V16.632H49.084V15.072H48.076V13.824H46.42V15.072H45.256L47.284 10.632ZM49.6264 16.956C49.6264 17.592 50.1184 18.084 50.7304 18.084C51.3544 18.084 51.8464 17.592 51.8464 16.956C51.8464 16.32 51.3544 15.84 50.7304 15.84C50.1184 15.84 49.6264 16.32 49.6264 16.956ZM55.13 16.632C54.602 16.632 54.206 16.308 54.206 15.816C54.206 15.312 54.602 15 55.13 15C55.67 15 56.066 15.312 56.066 15.816C56.066 16.308 55.67 16.632 55.13 16.632ZM55.13 13.464C54.674 13.464 54.302 13.164 54.302 12.72C54.302 12.252 54.674 11.952 55.13 11.952C55.598 11.952 55.958 12.252 55.958 12.72C55.958 13.164 55.598 13.464 55.13 13.464ZM55.13 18.12C56.666 18.12 57.914 17.316 57.914 15.96C57.914 15.096 57.386 14.484 56.726 14.256C57.314 13.968 57.674 13.38 57.674 12.66C57.674 11.268 56.486 10.512 55.13 10.512C53.786 10.512 52.586 11.268 52.586 12.66C52.586 13.38 52.946 13.968 53.546 14.256C52.874 14.484 52.358 15.096 52.358 15.96C52.358 17.316 53.594 18.12 55.13 18.12Z" fill="white"/>
<defs>
<clipPath id="clip0">
<rect width="16" height="16" fill="white" transform="translate(12 5)"/>
</clipPath>
</defs>
</svg>
